<svg width="101" height="32" viewBox="0 0 101 32" fill="none" xmlns="http://www.w3.org/2000/svg">
<g clip-path="url(#clip0_121145_102554)">
<path d="M38.3977 28.1014V18.5023L34.6063 28.1014H32.4723L28.6809 18.5777V28.1014H26.2259V14.4085H29.6029L33.56 24.2984L37.4239 14.4085H40.9149V28.1014H38.3977Z" fill="white"/>
<path d="M43.9086 31.8504L46.0633 26.9055L42.1787 18.5992H44.9445L47.3789 24.1583L49.6268 18.5992H52.2683L46.5295 31.8504H43.9086Z" fill="white"/>
<path d="M62.3269 28.1014L56.3497 18.3838V28.1014H53.7911V14.4085H56.9816L62.4615 23.4688V14.4085H65.0202V28.1014H62.3269Z" fill="white"/>
<path d="M69.7543 22.6392L72.0022 22.2945C72.5201 22.2191 72.6859 21.9497 72.6859 21.6158C72.6859 20.937 72.1886 20.3768 71.1424 20.3768C70.065 20.3768 69.4746 21.0879 69.3917 21.9174L67.1956 21.4326C67.3406 19.9459 68.6666 18.3083 71.1113 18.3083C74.0118 18.3083 75.0891 20.0105 75.0891 21.9174V26.593C75.0891 27.0994 75.1409 27.7673 75.2031 28.1013H72.9345C72.8827 27.8535 72.8412 27.3256 72.8412 26.9593C72.3751 27.7135 71.5049 28.3706 70.1479 28.3706C68.2004 28.3706 67.0091 27.0024 67.0091 25.5157C67.0195 23.8135 68.2315 22.8762 69.7543 22.6392ZM72.6859 24.266V23.8458L70.6244 24.169C69.9925 24.266 69.4953 24.6323 69.4953 25.3649C69.4953 25.9251 69.8889 26.4638 70.6866 26.4638C71.7225 26.4638 72.6859 25.9466 72.6859 24.266Z" fill="white"/>
<path d="M80.3412 18.5993H82.1851V20.8832H80.3412V24.8586C80.3412 25.6881 80.7141 25.9575 81.4185 25.9575C81.7189 25.9575 82.0504 25.9144 82.1851 25.882V28.0044C81.9572 28.1013 81.5117 28.2414 80.797 28.2414C79.0152 28.2414 77.8964 27.1425 77.8964 25.3003V20.8832H76.239V18.5993H76.7052C77.6685 18.5993 78.114 17.9421 78.114 17.091V15.7551H80.3412V18.5993Z" fill="white"/>
<path d="M89.9335 27.0779C89.4363 27.9613 88.3693 28.3491 87.4059 28.3491C85.1995 28.3491 83.9357 26.6685 83.9357 24.6V18.5885H86.4011V24.0721C86.4011 25.1387 86.9191 25.9898 88.0689 25.9898C89.167 25.9898 89.7989 25.2141 89.7989 24.1152V18.5885H92.2643V26.3776C92.2643 27.1102 92.3161 27.7674 92.3575 28.1013H89.9957C89.9749 27.9182 89.9335 27.4657 89.9335 27.0779Z" fill="white"/>
<path d="M100.189 21.1525C99.9092 21.0986 99.671 21.0771 99.4431 21.0771C98.1793 21.0771 97.0812 21.7127 97.0812 23.7597V28.1013H94.6158V18.5992H97.0087V20.0105C97.5681 18.7501 98.8319 18.5238 99.6088 18.5238C99.816 18.5238 100.002 18.5454 100.189 18.5669V21.1525Z" fill="white"/>
<path d="M13.878 25.1387L13.8676 24.8478C13.8469 24.3415 13.6915 23.8567 13.4118 23.4365C12.9975 22.8332 12.5935 22.2407 12.1998 21.6266C11.9823 21.2818 11.9719 20.8509 12.148 20.4954L12.1791 20.4307C12.8835 19.0518 12.8524 17.3819 12.1169 16.0245C9.94156 19.5258 7.74546 23.6412 6.07766 28.1121L16.2502 28.0583C16.2916 27.9398 16.2191 27.7566 16.2502 27.6273C14.9449 27.5627 13.9194 26.4854 13.878 25.1387Z" fill="white"/>
<path d="M7.18604 11.2519C7.53824 11.0579 7.69363 10.6593 7.33107 9.89441C6.83384 8.82785 6.15014 8.45078 5.33178 8.25686C5.05209 8.203 4.78276 8.39692 4.7206 8.6878C4.68953 8.88172 4.75168 9.08641 4.90706 9.20492L7.18604 11.2519C6.86491 11.4242 6.3884 11.4242 5.94296 11.3596C2.27588 10.7994 0.835987 6.52236 0.835987 6.52236C0.835987 6.52236 5.09353 4.87404 7.63148 7.63201C7.75578 7.78284 7.88009 7.93366 7.99404 8.09526C8.42912 8.69857 8.57414 9.47425 8.39804 10.2068C8.31517 10.5408 8.15978 10.8425 7.91117 10.9502" fill="white"/>
<path d="M16.2916 5.67127C16.6749 5.6605 17.0374 5.53122 17.3482 5.29421C18.1976 4.65858 18.7777 3.27959 18.7777 1.68514C18.7777 1.65282 18.7777 1.6205 18.7777 1.58818C18.7674 0.887913 19.3061 0.306153 19.9897 0.29538C20.0001 0.29538 20.0001 0.29538 20.0105 0.29538H20.0623C20.7356 0.29538 21.2846 0.866366 21.2846 1.57741C21.2846 1.71746 21.2639 1.84674 21.2225 1.97602C21.0464 2.55778 20.9531 3.15031 20.9635 3.76439C20.9635 5.20802 21.44 6.47927 22.1651 7.17954L22.7556 7.64279C23.201 8.01986 23.605 8.42925 23.9883 8.87096L24.0297 8.82786C24.2576 8.39693 24.5373 7.99831 24.8585 7.64279C27.3964 4.88482 31.654 6.53314 31.654 6.53314C31.654 6.53314 30.2037 10.8209 26.547 11.3704C26.1015 11.435 25.625 11.435 25.3039 11.2626L27.5725 9.22647C28.0076 8.88173 27.6865 8.14914 27.1478 8.27842C26.3398 8.47234 25.6561 8.84941 25.1485 9.91597C24.7963 10.6701 24.9413 11.0795 25.2935 11.2734L21.3157 14.8502C19.7618 16.2399 19.3371 18.567 20.3005 20.4523L20.3316 20.5169C20.5181 20.8724 20.4973 21.3142 20.2798 21.6481C19.8965 22.2622 19.4822 22.8655 19.0678 23.4581C18.7881 23.8674 18.6327 24.363 18.612 24.8694L18.6016 25.1602C18.5602 26.5392 17.4725 27.6381 16.1466 27.6489V5.67127H16.2916Z" fill="white"/>
<path d="M16.2916 5.67127C16.6749 5.6605 17.0374 5.53122 17.3482 5.29421C18.1976 4.65858 18.7777 3.27959 18.7777 1.68514C18.7777 1.65282 18.7777 1.6205 18.7777 1.58818C18.7674 0.887913 19.3061 0.306153 19.9897 0.29538C20.0001 0.29538 20.0001 0.29538 20.0105 0.29538H20.0623C20.7356 0.29538 21.2846 0.866366 21.2846 1.57741C21.2846 1.71746 21.2639 1.84674 21.2225 1.97602C21.0464 2.55778 20.9531 3.15031 20.9635 3.76439C20.9635 5.20802 21.44 6.47927 22.1651 7.17954L22.7556 7.64279C23.201 8.01986 23.605 8.42925 23.9883 8.87096L24.0297 8.82786C24.2576 8.39693 24.5373 7.99831 24.8585 7.64279C27.3964 4.88482 31.654 6.53314 31.654 6.53314C31.654 6.53314 30.2037 10.8209 26.547 11.3704C26.1015 11.435 25.625 11.435 25.3039 11.2626L27.5725 9.22647C28.0076 8.88173 27.6865 8.14914 27.1478 8.27842C26.3398 8.47234 25.6561 8.84941 25.1485 9.91597C24.7963 10.6701 24.9413 11.0795 25.2935 11.2734L21.3157 14.8502C19.7618 16.2399 19.3371 18.567 20.3005 20.4523L20.3316 20.5169C20.5181 20.8724 20.4973 21.3142 20.2798 21.6481C19.8965 22.2622 19.4822 22.8655 19.0678 23.4581C18.7881 23.8674 18.6327 24.363 18.612 24.8694L18.6016 25.1602C18.5602 26.5392 17.4725 27.6381 16.1466 27.6489V5.67127H16.2916Z" fill="white"/>
<path d="M15.121 5.27266C14.282 4.62626 13.7122 3.26882 13.7122 1.68514C13.7122 1.65282 13.7122 1.6205 13.7122 1.58818C13.7226 0.887914 13.1839 0.306153 12.5002 0.29538C12.4899 0.29538 12.4899 0.29538 12.4795 0.29538H12.4277C11.7544 0.29538 11.2053 0.866366 11.2053 1.57741C11.2053 1.71746 11.2261 1.84674 11.2675 1.97602C11.4436 2.55778 11.5368 3.15031 11.5265 3.76439C11.5368 4.60472 11.3607 5.43426 11.0189 6.1884C12.1169 5.10029 13.7019 4.75554 15.121 5.27266Z" fill="white"/>
</g>
<defs>
<clipPath id="clip0_121145_102554">
<rect width="99.6923" height="32" fill="white" transform="translate(0.653847)"/>
</clipPath>
</defs>
</svg>
